<?xml version="1.0" encoding="UTF-8" standalone="no"?>
<svg
   xmlns:dc="http://purl.org/dc/elements/1.1/"
   xmlns:cc="http://creativecommons.org/ns#"
   xmlns:rdf="http://www.w3.org/1999/02/22-rdf-syntax-ns#"
   xmlns:svg="http://www.w3.org/2000/svg"
   xmlns="http://www.w3.org/2000/svg"
   xmlns:xlink="http://www.w3.org/1999/xlink"
   xmlns:sodipodi="http://sodipodi.sourceforge.net/DTD/sodipodi-0.dtd"
   xmlns:inkscape="http://www.inkscape.org/namespaces/inkscape"
   inkscape:export-ydpi="192"
   inkscape:export-xdpi="192"
   inkscape:export-filename="/home/ovrwrt/Documentos/KAI/Icons/GuiTuner_112.png"
   sodipodi:docname="GuiTunerv2.svg"
   inkscape:version="1.0 (4035a4fb49, 2020-05-01)"
   id="svg8"
   version="1.1"
   viewBox="0 0 14.816666 14.816667"
   height="56"
   width="56">
  <defs
     id="defs2">
    <linearGradient
       id="linearGradient3594"
       inkscape:collect="always">
      <stop
         id="stop3590"
         offset="0"
         style="stop-color:#ff6b6b;stop-opacity:1" />
      <stop
         style="stop-color:#4ecdc4;stop-opacity:1"
         offset="0.45423499"
         id="stop3658" />
      <stop
         style="stop-color:#4ecdc4;stop-opacity:0.9834404"
         offset="1"
         id="stop3600" />
      <stop
         id="stop3592"
         offset="1"
         style="stop-color:#4ecdc4;stop-opacity:0;" />
    </linearGradient>
    <linearGradient
       gradientUnits="userSpaceOnUse"
       y2="23.819494"
       x2="32.273804"
       y1="27.271292"
       x1="14.892372"
       id="linearGradient3596"
       xlink:href="#linearGradient3594"
       inkscape:collect="always" />
    <filter
       height="1.13824"
       y="-0.06912"
       width="1.13824"
       x="-0.06912"
       id="filter3762"
       style="color-interpolation-filters:sRGB"
       inkscape:collect="always">
      <feGaussianBlur
         id="feGaussianBlur3764"
         stdDeviation="0.35052"
         inkscape:collect="always" />
    </filter>
  </defs>
  <sodipodi:namedview
     inkscape:lockguides="true"
     inkscape:window-maximized="1"
     inkscape:window-y="33"
     inkscape:window-x="0"
     inkscape:window-height="1018"
     inkscape:window-width="1920"
     showguides="false"
     units="px"
     showgrid="false"
     inkscape:document-rotation="0"
     inkscape:current-layer="layer1"
     inkscape:document-units="px"
     inkscape:cy="33.369067"
     inkscape:cx="-6.8688186"
     inkscape:zoom="7.0637837"
     inkscape:pageshadow="2"
     inkscape:pageopacity="0.0"
     borderopacity="1.0"
     bordercolor="#666666"
     pagecolor="#ffffff"
     id="base">
    <inkscape:grid
       id="grid845"
       type="xygrid" />
  </sodipodi:namedview>
  <metadata
     id="metadata5">
    <rdf:RDF>
      <cc:Work
         rdf:about="">
        <dc:format>image/svg+xml</dc:format>
        <dc:type
           rdf:resource="http://purl.org/dc/dcmitype/StillImage" />
        <dc:title />
      </cc:Work>
    </rdf:RDF>
  </metadata>
  <g
     id="layer1"
     inkscape:groupmode="layer"
     inkscape:label="Capa 1">
    <path
       id="path841-1"
       style="opacity:0.3;fill:#000000;fill-opacity:1;stroke:none;stroke-width:1.57139;stroke-linecap:round;stroke-linejoin:round;paint-order:stroke fill markers;filter:url(#filter3762)"
       d="M 13.49375,7.9375004 A 6.0854169,6.0854169 0 0 1 7.4083336,14.022917 6.0854169,6.0854169 0 0 1 1.3229168,7.9375004 6.0854169,6.0854169 0 0 1 7.4083336,1.8520835 6.0854169,6.0854169 0 0 1 13.49375,7.9375004 Z" />
    <path
       d="M 13.49375,7.4083333 A 6.0854168,6.0854168 0 0 1 7.4083333,13.49375 6.0854168,6.0854168 0 0 1 1.3229165,7.4083333 6.0854168,6.0854168 0 0 1 7.4083333,1.3229166 6.0854168,6.0854168 0 0 1 13.49375,7.4083333 Z"
       style="fill:#ffffff;fill-opacity:1;stroke:none;stroke-width:1.57139;stroke-linecap:round;stroke-linejoin:round;paint-order:stroke fill markers"
       id="path841" />
    <g
       id="g858"
       transform="matrix(1.0526315,0,0,1.0526315,-0.38991185,-0.38988941)">
      <circle
         style="fill:#3d3d3d;fill-opacity:1;stroke:none;stroke-width:0.829027;stroke-linecap:round;stroke-linejoin:round;stroke-miterlimit:4;stroke-dasharray:none;stroke-opacity:1;paint-order:markers stroke fill"
         id="path997"
         cx="7.4083333"
         cy="7.4083333"
         r="5.0270834" />
      <path
         d="m 7.3670095,2.3812888 c -0.074459,7.597e-4 -0.1488909,0.00317 -0.2232422,0.00724 v 1.3249833 c 0.088055,-0.00625 0.1763063,-0.00935 0.2645834,-0.0093 0.088277,-5.37e-5 0.1765279,0.00305 0.2645833,0.0093 V 2.3885235 c -0.088116,-0.00473 -0.1763407,-0.00714 -0.2645833,-0.00723 -0.01378,-5.66e-5 -0.027561,-5.65e-5 -0.041341,3e-7 z m 0.9901206,0.090434 c 0.031411,0.00607 0.062762,0.012447 0.094051,0.01912 -0.031289,-0.00667 -0.06264,-0.013046 -0.094051,-0.01912 z m -1.9926432,0.01912 c -0.1726458,0.036644 -0.343242,0.082355 -0.51108,0.1369426 l 0.3431315,1.280542 C 6.3634161,3.8505554 6.5342117,3.8047912 6.7076181,3.7713848 Z m 2.0877276,0 -0.3431313,1.2805418 c 0.1735812,0.033382 0.3445502,0.079147 0.5115965,0.1369428 L 8.9632945,2.6283022 C 8.7954663,2.5735404 8.6248699,2.527657 8.4522145,2.4908428 Z M 5.7614229,2.6587912 c -0.022449,0.00776 -0.044843,0.015688 -0.06718,0.02377 0.022337,-0.00808 0.044731,-0.016005 0.06718,-0.02377 z m -0.181901,0.067179 c -0.025576,0.00995 -0.051071,0.020117 -0.076481,0.030489 0.02541,-0.010372 0.050904,-0.020535 0.076481,-0.030489 z M 9.602532,2.8856508 c 0.024731,0.011856 0.049364,0.023915 0.073897,0.036174 C 9.6518958,2.9095654 9.6272626,2.897507 9.602532,2.8856508 Z M 5.1273529,2.9285418 C 4.9701878,3.0088107 4.8173586,3.0973 4.6694999,3.1936419 l 0.6624918,1.1477336 c 0.1462859,-0.099011 0.2994668,-0.187431 0.45837,-0.2645833 z m 4.5619955,0 -0.6624917,1.1482504 c 0.1587261,0.077174 0.3117335,0.165594 0.4578529,0.2645836 L 10.147718,3.1931255 C 9.9996799,3.0969437 9.8466781,3.0086267 9.6893484,2.9285418 Z M 4.0457654,3.6716493 C 3.9145717,3.7897077 3.7896863,3.9145931 3.6716279,4.0457868 L 4.6085217,4.9826803 C 4.7243405,4.8493686 4.8495445,4.72451 4.9831756,4.6090598 Z m 6.7251706,0 -0.9368936,0.9368938 C 9.9673542,4.7243619 10.092213,4.8495659 10.207663,4.983197 L 11.145074,4.0457868 C 11.027015,3.9145931 10.90213,3.7897077 10.770936,3.6716493 Z m 0.743624,0.8371583 c 0.0372,0.052868 0.07338,0.1064497 0.108521,0.1607137 -0.03514,-0.054264 -0.07132,-0.1078452 -0.108521,-0.1607137 z m 0.108521,0.1607137 -1.147734,0.6624919 c 0.09901,0.1462859 0.187431,0.2994668 0.264583,0.45837 L 11.888181,5.1273744 C 11.807912,4.9702093 11.719423,4.81738 11.623081,4.6695213 Z M 3.193104,4.6689922 C 3.0969223,4.8170304 3.0086055,4.9700324 2.9285207,5.1273622 L 4.0767711,5.789854 C 4.1539452,5.6311279 4.2423649,5.4781204 4.3413544,5.332001 Z M 2.9218029,5.1402813 c -0.012259,0.024533 -0.024318,0.049166 -0.036174,0.073897 0.011856,-0.024731 0.023915,-0.049364 0.036174,-0.073897 z m 9.1384601,0.3627686 c 0.01037,0.02541 0.02054,0.050905 0.03049,0.076481 -0.01,-0.025576 -0.02012,-0.051071 -0.03049,-0.076481 z m 0.0739,0.1912028 c 0.0081,0.022337 0.01601,0.04473 0.02377,0.067179 -0.0078,-0.022449 -0.01569,-0.044842 -0.02377,-0.067179 z M 2.6282807,5.8534284 C 2.5735189,6.0212566 2.5276356,6.191853 2.4908214,6.3645084 L 3.7713633,6.7076396 C 3.8047457,6.5340585 3.8505102,6.3630895 3.9083059,6.1960432 Z m 9.5606563,0 -1.280541,0.3431315 c 0.05777,0.1668778 0.103536,0.3376733 0.136942,0.5110797 L 12.32588,6.3645084 C 12.28924,6.1918626 12.24353,6.0212664 12.188937,5.8534284 Z M 2.4908214,6.3655418 c -0.00667,0.031289 -0.013046,0.06264 -0.01912,0.094051 0.00607,-0.031411 0.012447,-0.062762 0.01912,-0.094051 z"
         style="fill:#1e4e4a;fill-opacity:1;stroke:none;stroke-width:0.829027;stroke-linecap:round;stroke-linejoin:round;stroke-miterlimit:4;stroke-dasharray:none;stroke-opacity:1;paint-order:markers stroke fill"
         id="path997-2-2"
         sodipodi:nodetypes="cccccccccccccccccccccccccccccccccccccccccccccccccccccccccccccccccccccccccccccccccccccc" />
      <path
         id="path997-2"
         style="fill:url(#linearGradient3596);fill-opacity:1;stroke:none;stroke-width:3.13333;stroke-linecap:round;stroke-linejoin:round;stroke-miterlimit:4;stroke-dasharray:none;stroke-opacity:1;paint-order:markers stroke fill"
         d="M 27.84375,9 C 27.562332,9.0028646 27.281013,9.0119814 27,9.0273438 v 5.0078122 c 0.332808,-0.02363 0.666354,-0.03536 1,-0.03516 0.333646,-2.01e-4 0.667192,0.01153 1,0.03516 V 9.0273438 C 28.666964,9.0094541 28.333516,9.0003363 28,9 27.947917,8.9997858 27.895833,8.9997858 27.84375,9 Z m 3.742188,0.3417969 c 0.118717,0.022957 0.237211,0.047047 0.355468,0.072266 -0.118257,-0.025219 -0.236751,-0.049309 -0.355468,-0.072266 z m -7.53125,0.072266 c -0.65252,0.1384982 -1.297293,0.3112635 -1.931641,0.5175781 l 1.296875,4.839843 c 0.630719,-0.218351 1.276246,-0.391318 1.93164,-0.517578 z m 7.890624,0 -1.296874,4.8398431 c 0.656055,0.12617 1.302237,0.299138 1.933593,0.517578 L 33.876953,9.9335938 C 33.242642,9.72662 32.597868,9.5532027 31.945312,9.4140629 Z M 21.775391,10.048828 c -0.08485,0.02935 -0.169485,0.0593 -0.253907,0.08984 0.08442,-0.03055 0.16906,-0.0605 0.253907,-0.08984 z m -0.6875,0.253906 c -0.09667,0.03762 -0.193025,0.07604 -0.289063,0.115235 0.09604,-0.0392 0.192396,-0.07761 0.289063,-0.115235 z m 15.205078,0.603516 c 0.09347,0.04481 0.186573,0.09038 0.279297,0.136719 -0.09272,-0.04633 -0.185827,-0.09191 -0.279297,-0.136719 z m -16.914063,0.162109 c -0.59401,0.303379 -1.171632,0.637826 -1.730468,1.001953 l 2.503906,4.337891 c 0.552891,-0.374214 1.131843,-0.708401 1.732422,-1 z m 17.242188,0 -2.503906,4.339844 c 0.59991,0.291682 1.178206,0.625866 1.730468,1 l 2.50586,-4.339844 c -0.559515,-0.363521 -1.13779,-0.697317 -1.732422,-1 z m -21.330078,2.808594 c -0.49585,0.446205 -0.967858,0.918213 -1.414063,1.414063 l 3.541016,3.541015 c 0.43774,-0.503855 0.910952,-0.975762 1.416015,-1.412109 z m 25.417968,0 -3.541015,3.541016 c 0.503855,0.43774 0.975762,0.910952 1.412109,1.416015 l 3.542969,-3.542968 c -0.446205,-0.49585 -0.918213,-0.967858 -1.414063,-1.414063 z m 2.810547,3.164063 c 0.140612,0.199818 0.277356,0.40233 0.410157,0.607422 -0.132801,-0.205092 -0.269545,-0.407604 -0.410157,-0.607422 z m 0.410157,0.607422 -4.337891,2.503906 c 0.374214,0.552891 0.708401,1.131843 1,1.732422 l 4.339844,-2.50586 c -0.303379,-0.59401 -0.637826,-1.171632 -1.001953,-1.730468 z m -31.861329,-0.002 c -0.363521,0.559515 -0.697317,1.13779 -1,1.732422 l 4.339844,2.503906 c 0.291682,-0.59991 0.625866,-1.178206 1,-1.730468 z m -1.02539,1.78125 c -0.04633,0.09272 -0.09191,0.185827 -0.136719,0.279297 0.04481,-0.09347 0.09038,-0.186573 0.136719,-0.279297 z m 34.539062,1.371094 c 0.0392,0.09604 0.07761,0.192396 0.115235,0.289063 -0.03762,-0.09667 -0.07603,-0.193025 -0.115235,-0.289063 z m 0.279297,0.722656 c 0.03055,0.08442 0.0605,0.16906 0.08984,0.253907 -0.02935,-0.08485 -0.0593,-0.169485 -0.08984,-0.253907 z M 9.9335938,22.123047 C 9.72662,22.757358 9.5532027,23.402132 9.4140625,24.054688 l 4.8398435,1.296874 c 0.12617,-0.656055 0.299138,-1.302237 0.517578,-1.933593 z m 36.1347652,0 -4.839843,1.296875 c 0.218351,0.630719 0.391318,1.276246 0.517578,1.93164 l 4.839844,-1.296874 C 46.44744,23.402168 46.274674,22.757395 46.068359,22.123047 Z M 9.4140625,24.058594 c -0.025219,0.118257 -0.049309,0.236751 -0.072266,0.355468 0.022957,-0.118717 0.047047,-0.237211 0.072266,-0.355468 z"
         sodipodi:nodetypes="ccccccccccccccccccccccccccccccccccccccccccccccccccccccccccccccccccccccccccccccccccccc"
         transform="scale(0.26458333)" />
      <path
         sodipodi:type="star"
         style="opacity:1;fill:#4dcbc3;fill-opacity:1;fill-rule:evenodd;stroke:none;stroke-width:1.29805;stroke-linecap:round;stroke-linejoin:round;stroke-miterlimit:4;stroke-dasharray:none;stroke-opacity:1;paint-order:markers stroke fill"
         id="path3687"
         sodipodi:sides="3"
         sodipodi:cx="7.4083333"
         sodipodi:cy="5.5562501"
         sodipodi:r1="0.52916664"
         sodipodi:r2="0.26458332"
         sodipodi:arg1="1.5707963"
         sodipodi:arg2="2.6179939"
         inkscape:flatsided="true"
         inkscape:rounded="1"
         inkscape:randomized="0"
         d="m 7.4083333,6.0854167 c -0.9165435,1e-7 -0.9165435,1e-7 -0.4582718,-0.7937499 0.4582718,-0.79375 0.4582718,-0.79375 0.9165435,0 0.4582718,0.7937499 0.4582718,0.7937499 -0.4582717,0.7937499 z"
         inkscape:transform-center-y="-0.16536459" />
      <path
         id="rect3708"
         style="opacity:1;fill:#4dcbc3;fill-opacity:1;fill-rule:evenodd;stroke:#4dcbc3;stroke-width:0.132292;stroke-linecap:round;stroke-linejoin:round;stroke-miterlimit:4;stroke-dasharray:none;stroke-opacity:1;paint-order:markers stroke fill"
         d="M 6.4822916,7.2760416 V 7.5406249 7.8052083 8.5989578 9.1281245 9.6572917 10.186459 H 8.3343749 V 9.6572917 H 7.0114582 V 8.9958333 h 0.79375 V 8.4666666 h -0.79375 V 7.8052083 H 8.3343749 V 7.2760416 Z"
         sodipodi:nodetypes="cccccccccccccccccc" />
      <path
         sodipodi:nodetypes="csccscc"
         id="path997-6"
         style="fill:#7a7a7a;fill-opacity:1;stroke:none;stroke-width:0.829027;stroke-linecap:round;stroke-linejoin:round;stroke-miterlimit:4;stroke-dasharray:none;stroke-opacity:1;paint-order:markers stroke fill"
         d="m 2.3812498,7.4083332 c 1.9e-6,2.7763798 2.250703,5.0270798 5.0270829,5.0270798 2.7763803,10e-7 5.0270823,-2.250699 5.0270843,-5.0270798 0,-0.5291666 -1.322917,-0.5291666 -1.322917,0 -3e-6,2.0457531 -1.6584142,3.7041618 -3.7041673,3.7041618 -2.0457527,0 -3.7041635,-1.6584091 -3.7041662,-3.7041618 1e-7,-0.5291666 -1.3229165,-0.5291666 -1.3229167,0 z" />
    </g>
  </g>
</svg>
