<?xml version="1.0" encoding="UTF-8" standalone="no"?>
<svg
   xmlns:dc="http://purl.org/dc/elements/1.1/"
   xmlns:cc="http://creativecommons.org/ns#"
   xmlns:rdf="http://www.w3.org/1999/02/22-rdf-syntax-ns#"
   xmlns:svg="http://www.w3.org/2000/svg"
   xmlns="http://www.w3.org/2000/svg"
   xmlns:sodipodi="http://sodipodi.sourceforge.net/DTD/sodipodi-0.dtd"
   xmlns:inkscape="http://www.inkscape.org/namespaces/inkscape"
   height="1513.5"
   width="1513.5"
   inkscape:version="1.0 (4035a4fb49, 2020-05-01)"
   version="1.1"
   viewBox="0 0 1513.5001 1513.5"
   sodipodi:docname="icon.svg"
   id="svg2">
  <defs
     id="defs31" />
  <sodipodi:namedview
     inkscape:document-rotation="0"
     inkscape:window-height="1016"
     inkscape:current-layer="layer1"
     showguides="true"
     inkscape:document-units="px"
     inkscape:bbox-paths="true"
     inkscape:snap-object-midpoints="true"
     pagecolor="#ffffff"
     inkscape:pageshadow="2"
     inkscape:pageopacity="0.0"
     inkscape:window-width="1851"
     inkscape:object-nodes="true"
     inkscape:window-y="0"
     inkscape:window-x="0"
     bordercolor="#666666"
     inkscape:bbox-nodes="true"
     inkscape:snap-global="true"
     inkscape:snap-midpoints="true"
     inkscape:guide-bbox="true"
     showgrid="false"
     inkscape:snap-bbox="true"
     inkscape:window-maximized="1"
     inkscape:object-paths="true"
     inkscape:cy="536.80597"
     inkscape:cx="550.15162"
     inkscape:snap-intersection-paths="true"
     borderopacity="1.0"
     inkscape:zoom="0.35"
     inkscape:snap-center="true"
     id="base" />
  <g
     transform="translate(1435.4,-279.91)"
     inkscape:groupmode="layer"
     inkscape:label="Layer 1"
     id="layer1">
    <g
       transform="matrix(1.6461041,0,0,1.6461041,1201.8682,-1296.2732)"
       id="g3951">
      <path
         transform="translate(-694.74,66.75)"
         style="fill:#f5d5ae"
         d="m -516.06,307.16 c -7.1829,0 -13.031,5.0675 -13.031,11.344 0,6.2763 5.8484,11.375 13.031,11.375 7.1829,0 13,-5.0987 13,-11.375 0,-6.2763 -5.8171,-11.344 -13,-11.344 z m 2.2812,47.969 c -7.1829,0 -13,5.0987 -13,11.375 0,6.2763 5.8171,11.344 13,11.344 7.1829,0 13,-5.0675 13,-11.344 0,-6.2763 -5.8171,-11.375 -13,-11.375 z m 2.1562,45.688 c -7.1829,0 -13,5.0675 -13,11.344 0,6.2763 5.8171,11.375 13,11.375 7.1829,0 13,-5.0987 13,-11.375 0,-6.2763 -5.8171,-11.344 -13,-11.344 z"
         id="path2959" />
      <path
         d="m -1075.7,373.91 c 7.1828,0 13.031,5.0675 13.031,11.344 0,6.2763 -5.8484,11.375 -13.031,11.375 -7.1829,0 -13,-5.0987 -13,-11.375 0,-6.2763 5.8171,-11.344 13,-11.344 z m -2.2813,47.969 c 7.1829,0 13,5.0987 13,11.375 0,6.2763 -5.8171,11.344 -13,11.344 -7.1828,0 -13,-5.0675 -13,-11.344 0,-6.2763 5.8172,-11.375 13,-11.375 z m -2.1562,45.688 c 7.1828,0 13,5.0675 13,11.344 0,6.2763 -5.8172,11.375 -13,11.375 -7.1829,0 -13,-5.0987 -13,-11.375 0,-6.2763 5.8171,-11.344 13,-11.344 z"
         style="fill:#f5d5ae"
         inkscape:transform-center-x="-65.35164"
         id="path2966" />
      <path
         transform="translate(-694.74,66.75)"
         style="fill:#e8a45b"
         sodipodi:nodetypes="cssszsssz"
         d="m -448.5,971.16 c -162.02,0 -210.38,64.536 -216.31,130.44 -5.0563,56.174 30.797,117.94 28.906,150 -3.8185,64.754 -110.42,119.07 -104.53,269.72 6.818,174.33 157.45,205.31 291.94,205.31 134.48,0 285.12,-30.982 291.94,-205.31 5.892,-150.65 -100.74,-204.96 -104.56,-269.72 -1.8907,-32.062 33.994,-93.826 28.938,-150 -5.9318,-65.902 -54.294,-130.44 -216.31,-130.44 z"
         id="path2922" />
      <rect
         x="-1201.7"
         y="467.07999"
         width="116.9"
         height="11.835"
         ry="0"
         rx="0"
         style="fill:#cccccc"
         id="rect2949" />
      <rect
         x="-1204"
         y="421.41"
         width="121.49"
         height="11.835"
         ry="0"
         rx="0"
         style="fill:#cccccc"
         id="rect2951" />
      <rect
         x="-1206.4"
         y="373.42001"
         width="126.32"
         height="11.835"
         ry="0"
         rx="0"
         style="fill:#cccccc"
         id="rect2953" />
      <path
         transform="translate(-694.74,66.75)"
         style="fill:#e8a45b"
         d="m -448.5,213.16 c -18.913,0 -54.345,11.792 -58.312,26.938 l 10,210 4.6562,4.6562 6.0625,9.2812 h 75.156 l 6.0625,-9.2812 4.6562,-4.6562 10,-210 c -3.9672,-15.145 -39.368,-26.938 -58.281,-26.938 z m -34.156,70.281 c 4.0867,-0.14969 8.0633,2.4009 8.375,8.0938 l 6.7812,123.94 c 0.8243,15.054 -18.266,17.268 -18.938,1.7812 l -5.3438,-123.56 c -0.2788,-6.4306 4.4934,-10.08 9.125,-10.25 z m 67.5,0 c 4.868,-0.2539 10.233,3.4411 9.9375,10.25 l -5.375,123.56 c -0.6714,15.487 -19.731,13.273 -18.906,-1.7812 l 6.7812,-123.94 c 0.29094,-5.3133 3.7763,-7.8963 7.5625,-8.0938 z"
         id="path3866" />
      <circle
         r="94.954338"
         cy="1223.8212"
         cx="-448.50772"
         transform="matrix(0.98404,0,0,0.98404,-701.9,86.279)"
         style="fill:#c2682c"
         id="path2916" />
      <circle
         r="94.954338"
         cy="1223.8212"
         cx="-448.50772"
         transform="matrix(0.78191,0,0,0.78191,-792.55,333.65)"
         style="fill:#ecab6b"
         id="path2918" />
      <circle
         r="94.954338"
         cy="1223.8212"
         cx="-448.50772"
         transform="matrix(0.71277,0,0,0.71277,-823.57,418.27)"
         style="fill:#000000"
         id="path2920" />
      <rect
         x="-1286.6"
         y="1536.9"
         width="286.79001"
         height="42.5"
         ry="10.714"
         rx="7.1429"
         style="fill:#380b00"
         id="rect2929" />
      <rect
         x="-1206.6"
         y="1541.1"
         width="126.79"
         height="33.929001"
         ry="8.5534"
         rx="3.1578"
         style="fill:#754410"
         id="rect2931" />
      <path
         transform="translate(-694.74,66.75)"
         style="fill:#cccccc"
         d="m -511.91,1489.4 v 7.125 h 126.78 v -7.125 z"
         id="rect2933" />
      <path
         transform="translate(-694.74,66.75)"
         style="fill:#b88a70"
         d="m -486.09,464.03 -13.25,715.09 h 0.0625 c 12.403,-14.081 30.542,-22.969 50.781,-22.969 20.239,0 38.379,8.888 50.781,22.969 0.004,0.01 0.0268,-0.01 0.0312,0 l -13.25,-715.09 h -75.156 z"
         id="path2945" />
      <path
         transform="translate(-694.74,66.75)"
         style="fill:#ffffff"
         d="m -486.25,473.03 -0.15625,7.8125 h 75.781 l -0.15625,-7.8125 h -75.469 z m -1.0938,58.594 -0.0625,3.7812 h 77.781 l -0.0625,-3.7812 z m -0.9375,50.75 -0.0625,3.7812 h 79.656 l -0.0625,-3.7812 z m -0.875,47.719 -0.0937,3.8125 h 81.469 l -0.0937,-3.8125 h -81.281 z m -0.875,45.969 -0.0625,3.7812 h 83.156 l -0.0625,-3.7812 z m -0.8125,44.438 -0.0625,3.8125 h 84.781 l -0.0625,-3.8125 z m -0.75,39.906 -0.0625,3.7812 h 86.281 l -0.0625,-3.7812 z m -0.6875,37.625 -0.0625,3.8125 h 87.656 l -0.0625,-3.8125 z m -0.6875,37.656 -0.0937,3.7812 h 89.094 l -0.0937,-3.7812 h -88.906 z m -0.65625,35.094 -0.0625,3.7812 h 90.344 l -0.0625,-3.7812 z m -0.625,33.062 -0.0625,3.8125 h 91.594 l -0.0625,-3.8125 z m -0.59375,32.344 -0.0625,3.7812 h 92.781 l -0.0625,-3.7812 z m -0.53125,28.656 -0.0625,3.7812 h 93.844 l -0.0625,-3.7812 z m -0.5,27.75 -0.0937,3.8125 h 94.906 l -0.0937,-3.8125 h -94.719 z m -0.5,25.781 -0.0625,3.7812 h 95.844 l -0.0625,-3.7812 z m -0.46875,26 -0.0625,3.7812 h 96.781 l -0.0625,-3.7812 z m -0.4375,24 -0.0937,3.7812 h 97.719 l -0.0937,-3.7812 h -97.531 z m -0.40625,21.719 -0.0625,3.7812 h 98.469 l -0.0625,-3.7812 z m -0.375,20.437 -0.0937,3.8126 h 99.281 l -0.0937,-3.8126 h -99.094 z m -0.375,19.719 -0.0625,3.7812 h 99.969 l -0.0625,-3.7812 z"
         id="rect2968" />
      <g
         transform="matrix(-1,0,0,1,-2285.3,0)"
         inkscape:transform-center-y="-4.2300138"
         style="stroke:#000000;stroke-width:2"
         inkscape:transform-center-x="-22.241265"
         id="g3021">
        <path
           transform="translate(-694.74,66.75)"
           style="fill:none;stroke:#000000;stroke-width:2;stroke-linecap:round;stroke-linejoin:round"
           sodipodi:nodetypes="cccccc"
           d="m -495.86,1496.5 0.25254,-7.125 16.776,-1008.6 v -7.8262 l -0.73956,-60.864 v -11.835"
           id="path3023" />
        <path
           transform="translate(-694.74,66.75)"
           style="fill:none;stroke:#000000;stroke-width:2;stroke-linecap:round;stroke-linejoin:round"
           sodipodi:nodetypes="cccccc"
           d="m -477.04,1496.5 v -7.125 l 11.424,-1008.6 v -7.8262 l -7.1312,-106.83 v -12.374"
           id="path3025" />
        <path
           sodipodi:nodetypes="cccccc"
           transform="translate(-694.74,66.75)"
           inkscape:transform-center-x="-17.28377"
           d="m -457.6,1496.5 0.12627,-7.125 5.3467,-1008.6 v -7.8262 l -25.017,-154.52 v -11.835"
           style="fill:none;stroke:#000000;stroke-width:2;stroke-linecap:round;stroke-linejoin:round"
           id="path3027" />
      </g>
      <g
         transform="translate(-0.39193,0.35714)"
         inkscape:transform-center-y="-4.2300138"
         style="stroke:#000000;stroke-width:2"
         inkscape:transform-center-x="22.241265"
         id="g3029">
        <path
           d="m -495.86,1496.5 0.25254,-7.125 16.776,-1008.6 v -7.8262 l -0.73956,-60.864 v -11.835"
           transform="translate(-694.74,66.75)"
           style="fill:none;stroke:#000000;stroke-width:2;stroke-linecap:round;stroke-linejoin:round"
           sodipodi:nodetypes="cccccc"
           id="path3031" />
        <path
           d="m -477.04,1496.5 v -7.125 l 11.424,-1008.6 v -7.8262 l -7.1312,-106.83 v -12.374"
           transform="translate(-694.74,66.75)"
           style="fill:none;stroke:#000000;stroke-width:2;stroke-linecap:round;stroke-linejoin:round"
           sodipodi:nodetypes="cccccc"
           id="path3033" />
        <path
           inkscape:transform-center-x="-17.28377"
           transform="translate(-694.74,66.75)"
           sodipodi:nodetypes="cccccc"
           d="m -457.6,1496.5 0.12627,-7.125 5.3467,-1008.6 v -7.8262 l -25.017,-154.52 v -11.835"
           style="fill:none;stroke:#000000;stroke-width:2;stroke-linecap:round;stroke-linejoin:round"
           id="path3035" />
      </g>
    </g>
  </g>
  <metadata
     id="metadata28">
    <rdf:RDF>
      <cc:Work>
        <dc:format>image/svg+xml</dc:format>
        <dc:type
           rdf:resource="http://purl.org/dc/dcmitype/StillImage" />
        <cc:license
           rdf:resource="http://creativecommons.org/publicdomain/zero/1.0/" />
        <dc:publisher>
          <cc:Agent
             rdf:about="http://openclipart.org/">
            <dc:title>Openclipart</dc:title>
          </cc:Agent>
        </dc:publisher>
        <dc:title>Guitar by Rones</dc:title>
        <dc:date>2011-02-08T14:42:23</dc:date>
        <dc:description>a guitar</dc:description>
        <dc:source>https://openclipart.org/detail/117445/guitar-by-rones-by-rones</dc:source>
        <dc:creator>
          <cc:Agent>
            <dc:title>rones</dc:title>
          </cc:Agent>
        </dc:creator>
        <dc:subject>
          <rdf:Bag>
            <rdf:li>guitar</rdf:li>
            <rdf:li>music</rdf:li>
            <rdf:li>strings</rdf:li>
            <rdf:li>wood</rdf:li>
            <rdf:li>??????</rdf:li>
            <rdf:li>??????</rdf:li>
          </rdf:Bag>
        </dc:subject>
      </cc:Work>
      <cc:License
         rdf:about="http://creativecommons.org/publicdomain/zero/1.0/">
        <cc:permits
           rdf:resource="http://creativecommons.org/ns#Reproduction" />
        <cc:permits
           rdf:resource="http://creativecommons.org/ns#Distribution" />
        <cc:permits
           rdf:resource="http://creativecommons.org/ns#DerivativeWorks" />
      </cc:License>
    </rdf:RDF>
  </metadata>
</svg>
